<svg xmlns="http://www.w3.org/2000/svg"
     width="1200" height="140" viewBox="0 0 1200 140"
     role="img" aria-labelledby="sm-title sm-desc">
  <title id="sm-title">Star Movers</title>
  <desc id="sm-desc">The fastest-growing OSINT repositories over the last 30 days, tracked automatically.</desc>

  <rect width="1200" height="140" rx="22" fill="#0b0e12"/>
  <rect x="0.75" y="0.75" width="1198.5" height="138.5" rx="21.25" fill="none" stroke="#1d232b" stroke-width="1.5"/>

  <g font-family="-apple-system,BlinkMacSystemFont,'Segoe UI',sans-serif">
    <text x="48" y="46" font-family="ui-monospace,SFMono-Regular,Menlo,monospace" font-size="13" letter-spacing="2" fill="#7a8592">LIVE SIGNAL &#183; LAST 30 DAYS</text>
    <text x="48" y="94" font-size="36" font-weight="700" fill="#e9edf1">Star Movers</text>
  </g>

  <!-- sparkline + star motif -->
  <g>
    <line x1="850" y1="112" x2="1150" y2="112" stroke="#232a32" stroke-width="1.25"/>
    <polyline points="855,100 918,82 981,90 1044,58 1107,64" fill="none" stroke="#ffb020" stroke-width="2.2" stroke-linecap="round" stroke-linejoin="round"/>
    <g fill="#ffb020">
      <circle cx="855" cy="100" r="2.6"/>
      <circle cx="918" cy="82" r="2.6"/>
      <circle cx="981" cy="90" r="2.6"/>
      <circle cx="1044" cy="58" r="2.6"/>
    </g>
    <path transform="translate(1097 28) scale(1.15)" fill="#ffb020" d="M10 0 12.2 6.6 19 7 13.6 11.2 15.5 18 10 14.1 4.5 18 6.4 11.2 1 7 7.8 6.6z"/>
  </g>
</svg>
