<svg xmlns="http://www.w3.org/2000/svg"
     width="1200" height="140" viewBox="0 0 1200 140"
     role="img" aria-labelledby="res-title res-desc">
  <title id="res-title">Resources</title>
  <desc id="res-desc">11 living categories, 400 or more tools and reading for open-source investigators.</desc>

  <rect width="1200" height="140" rx="22" fill="#0b0e12"/>
  <rect x="0.75" y="0.75" width="1198.5" height="138.5" rx="21.25" fill="none" stroke="#1d232b" stroke-width="1.5"/>

  <g font-family="-apple-system,BlinkMacSystemFont,'Segoe UI',sans-serif">
    <text x="48" y="46" font-family="ui-monospace,SFMono-Regular,Menlo,monospace" font-size="13" letter-spacing="2" fill="#7a8592">11 CATEGORIES &#183; 400+ ENTRIES</text>
    <text x="48" y="94" font-size="36" font-weight="700" fill="#e9edf1">Resources</text>
  </g>

  <!-- category preview strip, same six featured in the hero case map -->
  <g>
    <rect x="744" y="48" width="44" height="44" rx="9" fill="#12161b" stroke="#262e37" stroke-width="1.25"/>
    <g transform="translate(751 55) scale(1.25)" fill="none" stroke="#8b95a1" stroke-width="1.6" stroke-linecap="round" stroke-linejoin="round">
      <rect x="3.5" y="9.5" width="17" height="10" rx="1.5"/>
      <path d="M8 9.5V7a1.5 1.5 0 0 1 1.5-1.5h5A1.5 1.5 0 0 1 16 7v2.5"/>
      <line x1="3.5" y1="14" x2="9.2" y2="14"/>
      <line x1="14.8" y1="14" x2="20.5" y2="14"/>
      <rect x="9.2" y="12.6" width="5.6" height="3" rx="0.6"/>
    </g>

    <rect x="800" y="48" width="44" height="44" rx="9" fill="#12161b" stroke="#262e37" stroke-width="1.25"/>
    <g transform="translate(807 55) scale(1.25)" stroke="#8b95a1" stroke-width="1.6" stroke-linecap="round">
      <line x1="12" y1="12" x2="5" y2="6"/>
      <line x1="12" y1="12" x2="19" y2="6"/>
      <line x1="12" y1="12" x2="12" y2="19"/>
    </g>
    <g transform="translate(807 55) scale(1.25)" fill="#ffb020" stroke="none">
      <circle cx="12" cy="12" r="2.3"/>
      <circle cx="5" cy="6" r="1.6"/>
      <circle cx="19" cy="6" r="1.6"/>
      <circle cx="12" cy="19" r="1.6"/>
    </g>

    <rect x="856" y="48" width="44" height="44" rx="9" fill="#12161b" stroke="#262e37" stroke-width="1.25"/>
    <g transform="translate(863 55) scale(1.25)" fill="none" stroke="#8b95a1" stroke-width="1.7" stroke-linecap="round" stroke-linejoin="round">
      <line x1="6" y1="3" x2="6" y2="21"/>
      <path d="M6 4h11l-3 4 3 4H6z"/>
    </g>

    <rect x="912" y="48" width="44" height="44" rx="9" fill="#12161b" stroke="#262e37" stroke-width="1.25"/>
    <g transform="translate(919 55) scale(1.25)" fill="none" stroke="#8b95a1" stroke-width="1.7" stroke-linecap="round" stroke-linejoin="round">
      <path d="M12 21s-7-6.2-7-11.5A7 7 0 0 1 19 9.5C19 14.8 12 21 12 21z"/>
      <circle cx="12" cy="9.5" r="2.3"/>
    </g>

    <rect x="968" y="48" width="44" height="44" rx="9" fill="#12161b" stroke="#262e37" stroke-width="1.25"/>
    <g transform="translate(975 55) scale(1.25)" fill="none" stroke="#8b95a1" stroke-width="1.6" stroke-linecap="round" stroke-linejoin="round">
      <path d="M12 6.3c-2-1.3-4.6-2-7-2v12.8c2.4 0 5 .7 7 2 2-1.3 4.6-2 7-2V4.3c-2.4 0-5 .7-7 2z"/>
      <line x1="12" y1="6.3" x2="12" y2="19.1"/>
    </g>

    <rect x="1024" y="48" width="44" height="44" rx="9" fill="#12161b" stroke="#262e37" stroke-width="1.25"/>
    <g transform="translate(1031 55) scale(1.25)" fill="none" stroke="#8b95a1" stroke-width="1.7" stroke-linecap="round" stroke-linejoin="round">
      <path d="M6 3h12v18l-6-4-6 4V3z"/>
    </g>
  </g>
</svg>
